<?xml version="1.0" standalone="no"?>
<!DOCTYPE svg PUBLIC "-//W3C//DTD SVG 20010904//EN"
 "http://www.w3.org/TR/2001/REC-SVG-20010904/DTD/svg10.dtd">
<svg version="1.0" xmlns="http://www.w3.org/2000/svg"
 width="800.000000pt" height="600.000000pt" viewBox="0 0 800.000000 600.000000"
 preserveAspectRatio="xMidYMid meet">
<metadata>
Created by potrace 1.16, written by Peter Selinger 2001-2019
</metadata>
<g transform="translate(0.000000,600.000000) scale(0.100000,-0.100000)"
fill="#000000" stroke="none">
<path d="M0 3000 l0 -3000 4000 0 4000 0 0 3000 0 3000 -4000 0 -4000 0 0
-3000z m4235 1980 c214 -25 442 -89 620 -176 l100 -49 306 -5 306 -5 48 -30
c86 -54 89 -65 95 -395 l5 -285 48 -80 c94 -158 177 -391 218 -610 26 -139 36
-431 20 -571 -33 -281 -134 -589 -253 -778 l-33 -51 -5 -282 -5 -281 -30 -43
c-57 -80 -70 -83 -400 -89 l-290 -5 -125 -62 c-286 -142 -569 -201 -920 -190
-308 9 -557 72 -815 205 l-90 47 -300 5 c-341 6 -353 8 -410 89 l-30 43 -3
286 -3 287 -69 140 c-143 288 -210 572 -210 895 0 323 69 615 211 897 l69 137
0 281 0 281 28 55 c22 45 36 59 81 82 l55 27 296 0 297 0 108 51 c183 86 407
151 611 178 98 12 363 13 469 1z"/>
</g>
</svg>
